<?xml version="1.0" encoding="utf-8"?>
<!-- Generator: Adobe Illustrator 25.1.0, SVG Export Plug-In . SVG Version: 6.00 Build 0)  -->
<svg version="1.1" id="Layer_1" xmlns="http://www.w3.org/2000/svg" xmlns:xlink="http://www.w3.org/1999/xlink" x="0px" y="0px"
	 viewBox="0 0 39.2 34.5" style="enable-background:new 0 0 39.2 34.5;" xml:space="preserve">
<style type="text/css">
	.st0{fill:#FFFFFF;}
	.st1{fill:#595959;}
	.st2{fill:#FF424E;}
</style>
<g>
	<g>
		<path className="st0" d="M25.4,0L4.7,12L0,23.9l5,8.7l12.7,1.9l20.8-12l0.7-2.7l-11-19.1L25.4,0L25.4,0z"/>
	</g>
	<g>
		<path className="st1" d="M25.6,1.1l1.9,0.5l10.6,18.3l-0.5,1.9L17.5,33.5L5.6,31.7l-4.5-7.8l4.4-11.2L25.6,1.1 M25.4,0L4.7,12L0,23.9
			l5,8.7l12.7,1.9l20.8-12l0.7-2.7l-11-19.1L25.4,0L25.4,0z"/>
	</g>
	<polygon className="st2" points="36.6,21.3 17.5,32.3 6.2,30.7 2.2,23.8 6.5,13.2 25.6,2.2 26.9,2.6 36.9,19.9 	"/>
	<g>
		<path className="st0" d="M8.7,20.8c1.9-1.1,3.6-0.6,4.7,1.4c1.1,2,0.7,3.7-1.2,4.8l-2.4,1.3l-3.5-6.2L8.7,20.8z M10.6,26.5l0.9-0.5
			c1.2-0.7,1.4-1.7,0.6-3.1c-0.7-1.3-1.8-1.6-2.9-1l-0.9,0.5L10.6,26.5z"/>
		<path className="st0" d="M20.1,22.5L16,24.8l-3.5-6.2l4.1-2.3l0.6,1.1l-2.8,1.6l0.9,1.5l2.7-1.5l0.6,1l-2.7,1.5l0.9,1.6l2.8-1.6
			L20.1,22.5z"/>
		<path className="st0" d="M23.8,18.4l-2.2,1.2l0.4,1.8l-1.3,0.8l-1.4-7.4l1.5-0.9l5.7,5l-1.4,0.8L23.8,18.4z M21.4,18.5l1.6-0.9
			l-2.2-2.1l0,0L21.4,18.5z"/>
		<path className="st0" d="M31.2,16.2l-4,2.3l-3.5-6.2l1.3-0.7l2.9,5.1l2.7-1.5L31.2,16.2z"/>
	</g>
</g>
</svg>
