<svg xmlns="http://www.w3.org/2000/svg" width="48.398" height="25.207" viewBox="0 0 48.398 25.207"><g transform="translate(-1214.456 -4366)"><path d="M57.512,28.5h45.373a1.511,1.511,0,0,1,1.512,1.512V52.195a1.508,1.508,0,0,1-1.512,1.512H57.512A1.511,1.511,0,0,1,56,52.195V30.012A1.515,1.515,0,0,1,57.512,28.5Z" transform="translate(1158.456 4337.5)" fill="#e0e0e0"/><g transform="translate(1225.66 4371.042)"><path d="M76.844,38.562a7.515,7.515,0,0,1-2.238,5.348,7.694,7.694,0,0,1-10.809,0,7.51,7.51,0,0,1,0-10.7,7.694,7.694,0,0,1,10.809,0,7.515,7.515,0,0,1,2.238,5.348Z" transform="translate(-61.556 -31)" fill="#c00"/><path d="M82.151,38.562a7.4,7.4,0,0,1-.583,2.894,7.5,7.5,0,0,1-1.656,2.454,7.7,7.7,0,0,1-10.811,0,7.541,7.541,0,0,1-1.658-2.454,7.5,7.5,0,0,1,0-5.788,7.605,7.605,0,0,1,4.138-4.094,7.7,7.7,0,0,1,8.33,1.639,7.5,7.5,0,0,1,1.656,2.454A7.4,7.4,0,0,1,82.151,38.562Z" transform="translate(-56.161 -31)" fill="#f90"/><path d="M69.156,42.894a8.942,8.942,0,0,0,2.293-5.414,8.938,8.938,0,0,0-2.295-5.415,7.542,7.542,0,0,0,0,10.829Z" transform="translate(-56.161 -29.917)" fill="#f16d27" fill-rule="evenodd"/></g></g></svg>
