<svg xmlns="http://www.w3.org/2000/svg" width="48.398" height="25.207" viewBox="0 0 48.398 25.207"><g transform="translate(-1159 -4366)"><path d="M30.012,28.5H75.385A1.511,1.511,0,0,1,76.9,30.012V52.195a1.508,1.508,0,0,1-1.512,1.512H30.012A1.511,1.511,0,0,1,28.5,52.195V30.012A1.515,1.515,0,0,1,30.012,28.5Z" transform="translate(1130.5 4337.5)" fill="#e0e0e0"/><g transform="translate(1165.294 4373.012)"><path d="M40.037,32.175l-2.759,7.375-.3-1.5a8.313,8.313,0,0,0-3.9-4.537l2.523,9.46h2.983l4.436-10.8H40.037m22.628,0H60.487a1.4,1.4,0,0,0-1.476.9l-4.184,9.915h2.96s.484-1.333.593-1.627l3.608.006c.083.379.343,1.621.343,1.621h2.615L62.665,32.177Zm-3.475,6.971c.232-.621,1.121-3.025,1.121-3.025-.016.03.232-.627.373-1.032l.192.934.651,3.124Zm-3.753-6.717a7.019,7.019,0,0,0-2.527-.454c-2.783,0-4.745,1.468-4.761,3.569-.018,1.555,1.4,2.424,2.468,2.94,1.1.53,1.466.869,1.462,1.341-.008.726-.877,1.059-1.686,1.059a5.708,5.708,0,0,1-2.656-.567l-.363-.173-.393,2.42a8.576,8.576,0,0,0,3.14.579c2.96,0,4.884-1.452,4.906-3.7.012-1.232-.74-2.168-2.365-2.94-.986-.5-1.589-.833-1.583-1.341,0-.45.512-.93,1.613-.93a4.964,4.964,0,0,1,2.109.415l.254.123.381-2.345M42.4,42.983l1.76-10.819h2.817L45.216,42.983H42.4" transform="translate(-30.138 -31.977)" fill="#191975" fill-rule="evenodd"/><path d="M36.2,32.071H31.659l-.038.226a9.422,9.422,0,0,1,6.844,5.659l-.986-4.971a1.182,1.182,0,0,0-1.276-.914" transform="translate(-31.621 -31.881)" fill="#ec982d" fill-rule="evenodd"/></g></g></svg>
